<mxfile host="app.diagrams.net" modified="2024-03-27T21:49:35.020Z" agent="Mozilla/5.0 (Windows NT 10.0; Win64; x64) AppleWebKit/537.36 (KHTML, like Gecko) Chrome/123.0.0.0 Safari/537.36" etag="1m_k5gXCVRk1XR8pzawf" version="24.2.0" type="device" pages="2">
  <diagram name="UML Diagram" id="872qMeDaOOM6Bme9XBFL">
    <mxGraphModel dx="4198" dy="2592" grid="1" gridSize="10" guides="1" tooltips="1" connect="1" arrows="1" fold="1" page="1" pageScale="1" pageWidth="850" pageHeight="1100" math="0" shadow="0">
      <root>
        <mxCell id="0" />
        <mxCell id="1" parent="0" />
        <mxCell id="9GU6TQ-uFcXjfUXqjDF7-1" value="" style="rounded=0;whiteSpace=wrap;html=1;hachureGap=4;fontFamily=Architects Daughter;fontSource=https%3A%2F%2Ffonts.googleapis.com%2Fcss%3Ffamily%3DArchitects%2BDaughter;fontSize=20;strokeColor=none;" parent="1" vertex="1">
          <mxGeometry x="-40" y="-120" width="1930" height="1160" as="geometry" />
        </mxCell>
        <mxCell id="LVVLpY_JYKPzYzUHeONT-1" value="" style="shape=folder;fontStyle=1;spacingTop=10;tabWidth=106;tabHeight=22;tabPosition=left;html=1;whiteSpace=wrap;fillColor=#f5f5f5;strokeColor=#666666;fontColor=#333333;fontFamily=Architects Daughter;fontSource=https%3A%2F%2Ffonts.googleapis.com%2Fcss%3Ffamily%3DArchitects%2BDaughter;sketch=1;curveFitting=1;jiggle=2;" parent="1" vertex="1">
          <mxGeometry y="12" width="770" height="742" as="geometry" />
        </mxCell>
        <mxCell id="-Qh5zQNR_VSR-YZa_GHB-102" value="" style="group;sketch=1;curveFitting=1;jiggle=2;" parent="1" vertex="1" connectable="0">
          <mxGeometry x="905" y="228" width="786" height="692" as="geometry" />
        </mxCell>
        <mxCell id="-Qh5zQNR_VSR-YZa_GHB-99" value="" style="shape=folder;fontStyle=1;spacingTop=10;tabWidth=106;tabHeight=22;tabPosition=left;html=1;whiteSpace=wrap;fillColor=#f5f5f5;strokeColor=#666666;fontColor=#333333;sketch=1;curveFitting=1;jiggle=2;" parent="-Qh5zQNR_VSR-YZa_GHB-102" vertex="1">
          <mxGeometry y="2.0843373493975905" width="786" height="689.9156626506025" as="geometry" />
        </mxCell>
        <mxCell id="-Qh5zQNR_VSR-YZa_GHB-100" value="employee" style="text;html=1;align=center;verticalAlign=middle;resizable=0;points=[];autosize=1;strokeColor=none;fillColor=none;fontStyle=1;fontFamily=Architects Daughter;fontSource=https%3A%2F%2Ffonts.googleapis.com%2Fcss%3Ffamily%3DArchitects%2BDaughter;" parent="-Qh5zQNR_VSR-YZa_GHB-102" vertex="1">
          <mxGeometry x="18" width="70" height="30" as="geometry" />
        </mxCell>
        <mxCell id="-Qh5zQNR_VSR-YZa_GHB-50" value="&lt;p style=&quot;margin: 4px 0px 0px; text-align: center; line-height: 80%;&quot;&gt;&lt;b style=&quot;background-color: initial;&quot;&gt;EmployeeServiceImpl&lt;/b&gt;&lt;br&gt;&lt;/p&gt;&lt;hr size=&quot;1&quot;&gt;&lt;div style=&quot;height:2px;&quot;&gt;&amp;nbsp;+ EmployeeServiceImpl(EmployeeRepository employeeRepository,&amp;nbsp;&lt;br&gt;&amp;nbsp; &amp;nbsp; &amp;nbsp; &amp;nbsp; &amp;nbsp; &amp;nbsp; &amp;nbsp; &amp;nbsp; &amp;nbsp; &amp;nbsp; &amp;nbsp; &amp;nbsp; &amp;nbsp; &amp;nbsp; &amp;nbsp; &amp;nbsp; &amp;nbsp; &amp;nbsp; &amp;nbsp; &amp;nbsp; DepartmentRepository departmentRepository)&lt;/div&gt;" style="verticalAlign=top;align=left;overflow=fill;fontSize=12;fontFamily=Architects Daughter;html=1;whiteSpace=wrap;fillColor=#f8cecc;strokeColor=#b85450;fontSource=https%3A%2F%2Ffonts.googleapis.com%2Fcss%3Ffamily%3DArchitects%2BDaughter;sketch=1;curveFitting=1;jiggle=2;" parent="-Qh5zQNR_VSR-YZa_GHB-102" vertex="1">
          <mxGeometry x="196.5" y="181.33734939759037" width="466" height="64.61445783132531" as="geometry" />
        </mxCell>
        <mxCell id="LVVLpY_JYKPzYzUHeONT-8" value="&lt;p style=&quot;margin: 4px 0px 0px; text-align: center; line-height: 80%;&quot;&gt;&lt;font style=&quot;font-size: 9px;&quot;&gt;«interface»&lt;/font&gt;&lt;b&gt;&lt;br&gt;&lt;/b&gt;&lt;/p&gt;&lt;p style=&quot;margin: 4px 0px 0px; text-align: center; line-height: 80%;&quot;&gt;&lt;b&gt;DepartmentService&lt;/b&gt;&lt;/p&gt;&lt;hr size=&quot;1&quot;&gt;&lt;div style=&quot;height:2px;&quot;&gt;&amp;nbsp;+ finAll(): List&amp;lt;DepartmentDto&amp;gt;&lt;br&gt;&amp;nbsp;+ findByCode(int code): DepartmentDto&lt;/div&gt;" style="verticalAlign=top;align=left;overflow=fill;fontSize=12;fontFamily=Architects Daughter;html=1;whiteSpace=wrap;fillColor=#f8cecc;strokeColor=#b85450;fontSource=https%3A%2F%2Ffonts.googleapis.com%2Fcss%3Ffamily%3DArchitects%2BDaughter;sketch=1;curveFitting=1;jiggle=2;" parent="1" vertex="1">
          <mxGeometry x="331.5" y="320" width="221" height="73" as="geometry" />
        </mxCell>
        <mxCell id="LVVLpY_JYKPzYzUHeONT-10" style="edgeStyle=orthogonalEdgeStyle;rounded=0;orthogonalLoop=1;jettySize=auto;html=1;entryX=0.5;entryY=1;entryDx=0;entryDy=0;endArrow=block;endFill=0;dashed=1;dashPattern=1 1;exitX=0.5;exitY=0;exitDx=0;exitDy=0;fontFamily=Architects Daughter;fontSource=https%3A%2F%2Ffonts.googleapis.com%2Fcss%3Ffamily%3DArchitects%2BDaughter;sketch=1;curveFitting=1;jiggle=2;" parent="1" source="LVVLpY_JYKPzYzUHeONT-9" target="LVVLpY_JYKPzYzUHeONT-8" edge="1">
          <mxGeometry relative="1" as="geometry">
            <Array as="points">
              <mxPoint x="442" y="404" />
              <mxPoint x="442" y="404" />
            </Array>
          </mxGeometry>
        </mxCell>
        <mxCell id="LVVLpY_JYKPzYzUHeONT-11" value="implements" style="edgeLabel;html=1;align=center;verticalAlign=middle;resizable=0;points=[];fontSize=9;fontFamily=Architects Daughter;fontSource=https%3A%2F%2Ffonts.googleapis.com%2Fcss%3Ffamily%3DArchitects%2BDaughter;" parent="LVVLpY_JYKPzYzUHeONT-10" vertex="1" connectable="0">
          <mxGeometry x="-0.093" relative="1" as="geometry">
            <mxPoint x="29" as="offset" />
          </mxGeometry>
        </mxCell>
        <mxCell id="sWgnHZlghvhyXd7LkZwI-2" style="edgeStyle=orthogonalEdgeStyle;rounded=0;orthogonalLoop=1;jettySize=auto;html=1;entryX=0.5;entryY=0;entryDx=0;entryDy=0;dashed=1;dashPattern=1 1;endArrow=open;endFill=0;fontFamily=Architects Daughter;fontSource=https%3A%2F%2Ffonts.googleapis.com%2Fcss%3Ffamily%3DArchitects%2BDaughter;sketch=1;curveFitting=1;jiggle=2;" parent="1" source="LVVLpY_JYKPzYzUHeONT-9" target="-Qh5zQNR_VSR-YZa_GHB-38" edge="1">
          <mxGeometry relative="1" as="geometry">
            <mxPoint x="442" y="495.9499999999998" as="targetPoint" />
          </mxGeometry>
        </mxCell>
        <mxCell id="sWgnHZlghvhyXd7LkZwI-16" value="&lt;p style=&quot;margin: 4px 0px 0px; text-align: center; line-height: 80%;&quot;&gt;&lt;b style=&quot;background-color: initial;&quot;&gt;DepartmentDatabaseDao&lt;/b&gt;&lt;br&gt;&lt;/p&gt;&lt;hr size=&quot;1&quot;&gt;&lt;div style=&quot;height:2px;&quot;&gt;&amp;nbsp;+ finAll(): List&amp;lt;DepartmentDto&amp;gt;&lt;br&gt;&amp;nbsp;+ findByCode(int code): DepartmentDto&lt;/div&gt;" style="verticalAlign=top;align=left;overflow=fill;fontSize=12;fontFamily=Architects Daughter;html=1;whiteSpace=wrap;fillColor=#d5e8d4;strokeColor=#82b366;fontSource=https%3A%2F%2Ffonts.googleapis.com%2Fcss%3Ffamily%3DArchitects%2BDaughter;sketch=1;curveFitting=1;jiggle=2;" parent="1" vertex="1">
          <mxGeometry x="326" y="671" width="232" height="57" as="geometry" />
        </mxCell>
        <mxCell id="sWgnHZlghvhyXd7LkZwI-17" style="edgeStyle=orthogonalEdgeStyle;rounded=0;orthogonalLoop=1;jettySize=auto;html=1;entryX=0.5;entryY=0;entryDx=0;entryDy=0;dashed=1;dashPattern=1 1;endArrow=open;endFill=0;exitX=0.5;exitY=1;exitDx=0;exitDy=0;fontFamily=Architects Daughter;fontSource=https%3A%2F%2Ffonts.googleapis.com%2Fcss%3Ffamily%3DArchitects%2BDaughter;sketch=1;curveFitting=1;jiggle=2;" parent="1" source="-Qh5zQNR_VSR-YZa_GHB-39" target="sWgnHZlghvhyXd7LkZwI-16" edge="1">
          <mxGeometry relative="1" as="geometry">
            <mxPoint x="350" y="641" as="sourcePoint" />
            <mxPoint x="440" y="661" as="targetPoint" />
          </mxGeometry>
        </mxCell>
        <mxCell id="sWgnHZlghvhyXd7LkZwI-32" value="" style="image;sketch=0;aspect=fixed;html=1;points=[];align=center;fontSize=12;image=img/lib/mscae/SQL_Database_generic.svg;fontFamily=Architects Daughter;fontSource=https%3A%2F%2Ffonts.googleapis.com%2Fcss%3Ffamily%3DArchitects%2BDaughter;" parent="1" vertex="1">
          <mxGeometry x="544" y="708" width="32.6" height="42.89" as="geometry" />
        </mxCell>
        <mxCell id="sWgnHZlghvhyXd7LkZwI-34" value="&lt;p style=&quot;margin: 4px 0px 0px; text-align: center; line-height: 80%;&quot;&gt;&lt;b style=&quot;background-color: initial;&quot;&gt;DepartmentTCPService&lt;/b&gt;&lt;br&gt;&lt;/p&gt;&lt;hr size=&quot;1&quot;&gt;&lt;div style=&quot;height:2px;&quot;&gt;&amp;nbsp;+ main()&lt;br&gt;&amp;nbsp;+ run(): void&amp;nbsp;&lt;br&gt;&amp;nbsp;- findAll(DataOutputStream output): void&lt;br&gt;&amp;nbsp;- findByCode(DataInputStream input, DataOutputStream output): void&amp;nbsp;&lt;/div&gt;" style="verticalAlign=top;align=left;overflow=fill;fontSize=12;fontFamily=Architects Daughter;html=1;whiteSpace=wrap;fillColor=#d5e8d4;strokeColor=#82b366;fontSource=https%3A%2F%2Ffonts.googleapis.com%2Fcss%3Ffamily%3DArchitects%2BDaughter;sketch=1;curveFitting=1;jiggle=2;" parent="1" vertex="1">
          <mxGeometry x="12" y="159.5" width="398" height="89" as="geometry" />
        </mxCell>
        <mxCell id="-Qh5zQNR_VSR-YZa_GHB-36" style="edgeStyle=orthogonalEdgeStyle;rounded=0;orthogonalLoop=1;jettySize=auto;html=1;entryX=0.25;entryY=0;entryDx=0;entryDy=0;dashed=1;dashPattern=1 1;endArrow=open;endFill=0;exitX=0.5;exitY=1;exitDx=0;exitDy=0;fontFamily=Architects Daughter;fontSource=https%3A%2F%2Ffonts.googleapis.com%2Fcss%3Ffamily%3DArchitects%2BDaughter;sketch=1;curveFitting=1;jiggle=2;" parent="1" source="sWgnHZlghvhyXd7LkZwI-34" target="LVVLpY_JYKPzYzUHeONT-8" edge="1">
          <mxGeometry relative="1" as="geometry">
            <mxPoint x="452" y="444" as="sourcePoint" />
            <mxPoint x="332" y="609" as="targetPoint" />
          </mxGeometry>
        </mxCell>
        <mxCell id="-Qh5zQNR_VSR-YZa_GHB-37" style="edgeStyle=orthogonalEdgeStyle;rounded=0;orthogonalLoop=1;jettySize=auto;html=1;entryX=0.75;entryY=0;entryDx=0;entryDy=0;dashed=1;dashPattern=1 1;endArrow=open;endFill=0;exitX=0.5;exitY=1;exitDx=0;exitDy=0;fontFamily=Architects Daughter;fontSource=https%3A%2F%2Ffonts.googleapis.com%2Fcss%3Ffamily%3DArchitects%2BDaughter;sketch=1;curveFitting=1;jiggle=2;" parent="1" source="sWgnHZlghvhyXd7LkZwI-21" target="LVVLpY_JYKPzYzUHeONT-8" edge="1">
          <mxGeometry relative="1" as="geometry">
            <mxPoint x="317" y="266" as="sourcePoint" />
            <mxPoint x="407" y="330" as="targetPoint" />
          </mxGeometry>
        </mxCell>
        <mxCell id="-Qh5zQNR_VSR-YZa_GHB-38" value="&lt;p style=&quot;margin: 4px 0px 0px; text-align: center; line-height: 80%;&quot;&gt;&lt;font style=&quot;font-size: 9px;&quot;&gt;«interface»&lt;/font&gt;&lt;b&gt;&lt;br&gt;&lt;/b&gt;&lt;/p&gt;&lt;p style=&quot;margin: 4px 0px 0px; text-align: center; line-height: 80%;&quot;&gt;&lt;b&gt;DepartmentRepository&lt;/b&gt;&lt;/p&gt;&lt;hr size=&quot;1&quot;&gt;&lt;div style=&quot;height:2px;&quot;&gt;&amp;nbsp;+ finAll(): List&amp;lt;DepartmentDto&amp;gt;&lt;br&gt;&amp;nbsp;+ findByCode(int code): DepartmentDto&lt;/div&gt;" style="verticalAlign=top;align=left;overflow=fill;fontSize=12;fontFamily=Architects Daughter;html=1;whiteSpace=wrap;fillColor=#d5e8d4;strokeColor=#82b366;fontSource=https%3A%2F%2Ffonts.googleapis.com%2Fcss%3Ffamily%3DArchitects%2BDaughter;sketch=1;curveFitting=1;jiggle=2;" parent="1" vertex="1">
          <mxGeometry x="331.5" y="511" width="221" height="73" as="geometry" />
        </mxCell>
        <mxCell id="-Qh5zQNR_VSR-YZa_GHB-40" style="edgeStyle=orthogonalEdgeStyle;rounded=0;orthogonalLoop=1;jettySize=auto;html=1;entryX=0.5;entryY=1;entryDx=0;entryDy=0;endArrow=block;endFill=0;dashed=1;dashPattern=1 1;exitX=0.5;exitY=0;exitDx=0;exitDy=0;fontFamily=Architects Daughter;fontSource=https%3A%2F%2Ffonts.googleapis.com%2Fcss%3Ffamily%3DArchitects%2BDaughter;sketch=1;curveFitting=1;jiggle=2;" parent="1" source="-Qh5zQNR_VSR-YZa_GHB-39" target="-Qh5zQNR_VSR-YZa_GHB-38" edge="1">
          <mxGeometry relative="1" as="geometry">
            <Array as="points">
              <mxPoint x="442" y="601" />
              <mxPoint x="442" y="601" />
            </Array>
            <mxPoint x="422" y="618" as="sourcePoint" />
            <mxPoint x="422" y="591" as="targetPoint" />
          </mxGeometry>
        </mxCell>
        <mxCell id="-Qh5zQNR_VSR-YZa_GHB-41" value="implements" style="edgeLabel;html=1;align=center;verticalAlign=middle;resizable=0;points=[];fontSize=9;fontFamily=Architects Daughter;fontSource=https%3A%2F%2Ffonts.googleapis.com%2Fcss%3Ffamily%3DArchitects%2BDaughter;" parent="-Qh5zQNR_VSR-YZa_GHB-40" vertex="1" connectable="0">
          <mxGeometry x="-0.093" relative="1" as="geometry">
            <mxPoint x="28" as="offset" />
          </mxGeometry>
        </mxCell>
        <mxCell id="-Qh5zQNR_VSR-YZa_GHB-47" value="&lt;p style=&quot;margin: 4px 0px 0px; text-align: center; line-height: 80%;&quot;&gt;&lt;font style=&quot;font-size: 9px;&quot;&gt;«interface»&lt;/font&gt;&lt;b&gt;&lt;br&gt;&lt;/b&gt;&lt;/p&gt;&lt;p style=&quot;margin: 4px 0px 0px; text-align: center; line-height: 80%;&quot;&gt;&lt;b&gt;EmployeeService&lt;/b&gt;&lt;/p&gt;&lt;hr size=&quot;1&quot;&gt;&lt;div style=&quot;height:2px;&quot;&gt;&amp;nbsp;+ findLatestEmployees(int quantity): List&amp;lt;EmployeeDto&amp;gt;&lt;br&gt;&amp;nbsp;+ findByCode(int code): EmployeeDto&lt;br&gt;&amp;nbsp;+ findEmployeeLocation(int code): EmployeeLocationDto&lt;/div&gt;" style="verticalAlign=top;align=left;overflow=fill;fontSize=12;fontFamily=Architects Daughter;html=1;whiteSpace=wrap;fillColor=#f8cecc;strokeColor=#b85450;sketch=1;curveFitting=1;jiggle=2;fontSource=https%3A%2F%2Ffonts.googleapis.com%2Fcss%3Ffamily%3DArchitects%2BDaughter;" parent="1" vertex="1">
          <mxGeometry x="1176.25" y="291" width="316.5" height="90" as="geometry" />
        </mxCell>
        <mxCell id="-Qh5zQNR_VSR-YZa_GHB-51" style="edgeStyle=orthogonalEdgeStyle;rounded=0;orthogonalLoop=1;jettySize=auto;html=1;entryX=0.5;entryY=1;entryDx=0;entryDy=0;endArrow=block;endFill=0;dashed=1;dashPattern=1 1;exitX=0.5;exitY=0;exitDx=0;exitDy=0;fontFamily=Architects Daughter;fontSource=https%3A%2F%2Ffonts.googleapis.com%2Fcss%3Ffamily%3DArchitects%2BDaughter;sketch=1;curveFitting=1;jiggle=2;" parent="1" source="-Qh5zQNR_VSR-YZa_GHB-50" target="-Qh5zQNR_VSR-YZa_GHB-47" edge="1">
          <mxGeometry relative="1" as="geometry">
            <Array as="points" />
            <mxPoint x="1342" y="411" as="sourcePoint" />
            <mxPoint x="609.4" y="381" as="targetPoint" />
          </mxGeometry>
        </mxCell>
        <mxCell id="-Qh5zQNR_VSR-YZa_GHB-52" value="implements" style="edgeLabel;html=1;align=center;verticalAlign=middle;resizable=0;points=[];fontSize=9;fontFamily=Architects Daughter;fontSource=https%3A%2F%2Ffonts.googleapis.com%2Fcss%3Ffamily%3DArchitects%2BDaughter;" parent="-Qh5zQNR_VSR-YZa_GHB-51" vertex="1" connectable="0">
          <mxGeometry x="-0.093" relative="1" as="geometry">
            <mxPoint x="29" as="offset" />
          </mxGeometry>
        </mxCell>
        <mxCell id="-Qh5zQNR_VSR-YZa_GHB-53" value="&lt;p style=&quot;margin: 4px 0px 0px; text-align: center; line-height: 80%;&quot;&gt;&lt;font style=&quot;font-size: 9px;&quot;&gt;«interface»&lt;/font&gt;&lt;b&gt;&lt;br&gt;&lt;/b&gt;&lt;/p&gt;&lt;p style=&quot;margin: 4px 0px 0px; text-align: center; line-height: 80%;&quot;&gt;&lt;b&gt;EmployeeRepository&lt;/b&gt;&lt;/p&gt;&lt;hr size=&quot;1&quot;&gt;&lt;div style=&quot;height:2px;&quot;&gt;&amp;nbsp;+ findLatestEmployees(int quantity): List&amp;lt;EmployeeDto&amp;gt;&lt;br style=&quot;border-color: var(--border-color);&quot;&gt;&amp;nbsp;+ findByCode(int code): EmployeeDto&lt;br&gt;&lt;/div&gt;" style="verticalAlign=top;align=left;overflow=fill;fontSize=12;fontFamily=Architects Daughter;html=1;whiteSpace=wrap;fillColor=#d5e8d4;strokeColor=#82b366;fontSource=https%3A%2F%2Ffonts.googleapis.com%2Fcss%3Ffamily%3DArchitects%2BDaughter;sketch=1;curveFitting=1;jiggle=2;" parent="1" vertex="1">
          <mxGeometry x="987.5" y="511" width="310" height="73" as="geometry" />
        </mxCell>
        <mxCell id="-Qh5zQNR_VSR-YZa_GHB-54" value="&lt;p style=&quot;margin: 4px 0px 0px; text-align: center; line-height: 80%;&quot;&gt;&lt;b style=&quot;background-color: initial;&quot;&gt;EmployeeRepositoryImpl&lt;/b&gt;&lt;br&gt;&lt;/p&gt;&lt;hr size=&quot;1&quot;&gt;&lt;div style=&quot;height:2px;&quot;&gt;&lt;br&gt;&lt;/div&gt;" style="verticalAlign=top;align=left;overflow=fill;fontSize=12;fontFamily=Architects Daughter;html=1;whiteSpace=wrap;fillColor=#d5e8d4;strokeColor=#82b366;fontSource=https%3A%2F%2Ffonts.googleapis.com%2Fcss%3Ffamily%3DArchitects%2BDaughter;sketch=1;curveFitting=1;jiggle=2;" parent="1" vertex="1">
          <mxGeometry x="1052" y="601" width="180" height="30" as="geometry" />
        </mxCell>
        <mxCell id="-Qh5zQNR_VSR-YZa_GHB-55" style="rounded=0;orthogonalLoop=1;jettySize=auto;html=1;entryX=0.5;entryY=1;entryDx=0;entryDy=0;endArrow=block;endFill=0;dashed=1;dashPattern=1 1;exitX=0.5;exitY=0;exitDx=0;exitDy=0;fontFamily=Architects Daughter;fontSource=https%3A%2F%2Ffonts.googleapis.com%2Fcss%3Ffamily%3DArchitects%2BDaughter;sketch=1;curveFitting=1;jiggle=2;" parent="1" source="-Qh5zQNR_VSR-YZa_GHB-54" target="-Qh5zQNR_VSR-YZa_GHB-53" edge="1">
          <mxGeometry relative="1" as="geometry">
            <mxPoint x="1122.5" y="618" as="sourcePoint" />
            <mxPoint x="1122.5" y="591" as="targetPoint" />
          </mxGeometry>
        </mxCell>
        <mxCell id="-Qh5zQNR_VSR-YZa_GHB-56" value="implements" style="edgeLabel;html=1;align=center;verticalAlign=middle;resizable=0;points=[];fontSize=9;fontFamily=Architects Daughter;fontSource=https%3A%2F%2Ffonts.googleapis.com%2Fcss%3Ffamily%3DArchitects%2BDaughter;" parent="-Qh5zQNR_VSR-YZa_GHB-55" vertex="1" connectable="0">
          <mxGeometry x="-0.093" relative="1" as="geometry">
            <mxPoint x="28" as="offset" />
          </mxGeometry>
        </mxCell>
        <mxCell id="-Qh5zQNR_VSR-YZa_GHB-57" style="edgeStyle=elbowEdgeStyle;rounded=0;orthogonalLoop=1;jettySize=auto;html=1;dashed=1;dashPattern=1 1;endArrow=open;endFill=0;exitX=0.25;exitY=1;exitDx=0;exitDy=0;entryX=0.5;entryY=0;entryDx=0;entryDy=0;fontFamily=Architects Daughter;fontSource=https%3A%2F%2Ffonts.googleapis.com%2Fcss%3Ffamily%3DArchitects%2BDaughter;elbow=vertical;sketch=1;curveFitting=1;jiggle=2;" parent="1" source="-Qh5zQNR_VSR-YZa_GHB-50" target="-Qh5zQNR_VSR-YZa_GHB-53" edge="1">
          <mxGeometry relative="1" as="geometry">
            <mxPoint x="902" y="431" as="sourcePoint" />
            <mxPoint x="1032" y="491" as="targetPoint" />
          </mxGeometry>
        </mxCell>
        <mxCell id="-Qh5zQNR_VSR-YZa_GHB-63" value="&lt;p style=&quot;margin: 4px 0px 0px; text-align: center; line-height: 80%;&quot;&gt;&lt;font style=&quot;font-size: 10px;&quot;&gt;«abstract class»&lt;/font&gt;&lt;br&gt;&lt;b&gt;EmployeeDatabaseDao&lt;/b&gt;&lt;br&gt;&lt;/p&gt;&lt;hr size=&quot;1&quot;&gt;&lt;div style=&quot;height:2px;&quot;&gt;&amp;nbsp;+ findLatestEmployees(int quantity): List&amp;lt;EmployeeDto&amp;gt;&lt;br style=&quot;border-color: var(--border-color);&quot;&gt;&amp;nbsp;+ findByCode(int code): EmployeeDto&lt;br&gt;&amp;nbsp;#&amp;nbsp;getQueryToGetLatestEmployees&lt;/div&gt;" style="verticalAlign=top;align=left;overflow=fill;fontSize=12;fontFamily=Architects Daughter;html=1;whiteSpace=wrap;fillColor=#d5e8d4;strokeColor=#82b366;fontSource=https%3A%2F%2Ffonts.googleapis.com%2Fcss%3Ffamily%3DArchitects%2BDaughter;sketch=1;curveFitting=1;jiggle=2;" parent="1" vertex="1">
          <mxGeometry x="987.5" y="671" width="310" height="83" as="geometry" />
        </mxCell>
        <mxCell id="-Qh5zQNR_VSR-YZa_GHB-64" style="rounded=0;orthogonalLoop=1;jettySize=auto;html=1;entryX=0.5;entryY=0;entryDx=0;entryDy=0;dashed=1;dashPattern=1 1;endArrow=open;endFill=0;exitX=0.5;exitY=1;exitDx=0;exitDy=0;fontFamily=Architects Daughter;fontSource=https%3A%2F%2Ffonts.googleapis.com%2Fcss%3Ffamily%3DArchitects%2BDaughter;sketch=1;curveFitting=1;jiggle=2;" parent="1" source="-Qh5zQNR_VSR-YZa_GHB-54" target="-Qh5zQNR_VSR-YZa_GHB-63" edge="1">
          <mxGeometry relative="1" as="geometry">
            <mxPoint x="1060" y="631" as="sourcePoint" />
            <mxPoint x="1103" y="661" as="targetPoint" />
          </mxGeometry>
        </mxCell>
        <mxCell id="-Qh5zQNR_VSR-YZa_GHB-65" value="" style="image;sketch=0;aspect=fixed;html=1;points=[];align=center;fontSize=12;image=img/lib/mscae/SQL_Database_generic.svg;fontFamily=Architects Daughter;fontSource=https%3A%2F%2Ffonts.googleapis.com%2Fcss%3Ffamily%3DArchitects%2BDaughter;" parent="1" vertex="1">
          <mxGeometry x="1290" y="715" width="32.6" height="42.89" as="geometry" />
        </mxCell>
        <mxCell id="-Qh5zQNR_VSR-YZa_GHB-69" value="&lt;p style=&quot;margin: 4px 0px 0px; text-align: center; line-height: 80%;&quot;&gt;&lt;font style=&quot;font-size: 9px;&quot;&gt;«interface»&lt;/font&gt;&lt;b&gt;&lt;br&gt;&lt;/b&gt;&lt;/p&gt;&lt;p style=&quot;margin: 4px 0px 0px; text-align: center; line-height: 80%;&quot;&gt;&lt;b&gt;DepartmentRepository&lt;/b&gt;&lt;/p&gt;&lt;hr size=&quot;1&quot;&gt;&lt;div style=&quot;height:2px;&quot;&gt;&amp;nbsp;+ finAll(): List&amp;lt;DepartmentDto&amp;gt;&lt;br&gt;&amp;nbsp;+ findByCode(int code): DepartmentDto&lt;/div&gt;" style="verticalAlign=top;align=left;overflow=fill;fontSize=12;fontFamily=Architects Daughter;html=1;whiteSpace=wrap;fillColor=#d5e8d4;strokeColor=#82b366;fontSource=https%3A%2F%2Ffonts.googleapis.com%2Fcss%3Ffamily%3DArchitects%2BDaughter;sketch=1;curveFitting=1;jiggle=2;" parent="1" vertex="1">
          <mxGeometry x="1402" y="511" width="221" height="73" as="geometry" />
        </mxCell>
        <mxCell id="-Qh5zQNR_VSR-YZa_GHB-70" value="&lt;p style=&quot;margin: 4px 0px 0px; text-align: center; line-height: 80%;&quot;&gt;&lt;b style=&quot;background-color: initial;&quot;&gt;DepartmentRepositoryImpl&lt;/b&gt;&lt;br&gt;&lt;/p&gt;&lt;hr size=&quot;1&quot;&gt;&lt;div style=&quot;height:2px;&quot;&gt;&lt;br&gt;&lt;/div&gt;" style="verticalAlign=top;align=left;overflow=fill;fontSize=12;fontFamily=Architects Daughter;html=1;whiteSpace=wrap;fillColor=#d5e8d4;strokeColor=#82b366;fontSource=https%3A%2F%2Ffonts.googleapis.com%2Fcss%3Ffamily%3DArchitects%2BDaughter;sketch=1;curveFitting=1;jiggle=2;" parent="1" vertex="1">
          <mxGeometry x="1422.5" y="601" width="180" height="30" as="geometry" />
        </mxCell>
        <mxCell id="-Qh5zQNR_VSR-YZa_GHB-71" style="edgeStyle=elbowEdgeStyle;rounded=0;orthogonalLoop=1;jettySize=auto;html=1;dashed=1;dashPattern=1 1;endArrow=open;endFill=0;exitX=0.75;exitY=1;exitDx=0;exitDy=0;entryX=0.5;entryY=0;entryDx=0;entryDy=0;fontFamily=Architects Daughter;fontSource=https%3A%2F%2Ffonts.googleapis.com%2Fcss%3Ffamily%3DArchitects%2BDaughter;elbow=vertical;sketch=1;curveFitting=1;jiggle=2;" parent="1" source="-Qh5zQNR_VSR-YZa_GHB-50" target="-Qh5zQNR_VSR-YZa_GHB-69" edge="1">
          <mxGeometry relative="1" as="geometry">
            <mxPoint x="1337" y="470" as="sourcePoint" />
            <mxPoint x="1241" y="521" as="targetPoint" />
          </mxGeometry>
        </mxCell>
        <mxCell id="-Qh5zQNR_VSR-YZa_GHB-72" style="rounded=0;orthogonalLoop=1;jettySize=auto;html=1;endArrow=block;endFill=0;dashed=1;dashPattern=1 1;entryX=0.5;entryY=1;entryDx=0;entryDy=0;exitX=0.5;exitY=0;exitDx=0;exitDy=0;fontFamily=Architects Daughter;fontSource=https%3A%2F%2Ffonts.googleapis.com%2Fcss%3Ffamily%3DArchitects%2BDaughter;sketch=1;curveFitting=1;jiggle=2;" parent="1" source="-Qh5zQNR_VSR-YZa_GHB-70" target="-Qh5zQNR_VSR-YZa_GHB-69" edge="1">
          <mxGeometry relative="1" as="geometry">
            <mxPoint x="1252" y="641" as="sourcePoint" />
            <mxPoint x="1482" y="631" as="targetPoint" />
          </mxGeometry>
        </mxCell>
        <mxCell id="-Qh5zQNR_VSR-YZa_GHB-73" value="implements" style="edgeLabel;html=1;align=center;verticalAlign=middle;resizable=0;points=[];fontSize=9;fontFamily=Architects Daughter;fontSource=https%3A%2F%2Ffonts.googleapis.com%2Fcss%3Ffamily%3DArchitects%2BDaughter;" parent="-Qh5zQNR_VSR-YZa_GHB-72" vertex="1" connectable="0">
          <mxGeometry x="-0.093" relative="1" as="geometry">
            <mxPoint x="28" as="offset" />
          </mxGeometry>
        </mxCell>
        <mxCell id="-Qh5zQNR_VSR-YZa_GHB-76" value="&lt;p style=&quot;margin: 4px 0px 0px; text-align: center; line-height: 80%;&quot;&gt;&lt;b style=&quot;background-color: initial;&quot;&gt;DepartmentConnectorFacade&lt;/b&gt;&lt;br&gt;&lt;/p&gt;&lt;hr size=&quot;1&quot;&gt;&lt;div style=&quot;height:2px;&quot;&gt;&amp;nbsp;+ finAll(): List&amp;lt;DepartmentDto&amp;gt;&lt;br&gt;&amp;nbsp;+ findByCode(int code): DepartmentDto&lt;/div&gt;" style="verticalAlign=top;align=left;overflow=fill;fontSize=12;fontFamily=Architects Daughter;html=1;whiteSpace=wrap;fillColor=#d5e8d4;strokeColor=#82b366;fontSource=https%3A%2F%2Ffonts.googleapis.com%2Fcss%3Ffamily%3DArchitects%2BDaughter;sketch=1;curveFitting=1;jiggle=2;" parent="1" vertex="1">
          <mxGeometry x="1396.5" y="661" width="232" height="57" as="geometry" />
        </mxCell>
        <mxCell id="-Qh5zQNR_VSR-YZa_GHB-78" style="rounded=0;orthogonalLoop=1;jettySize=auto;html=1;entryX=0.5;entryY=0;entryDx=0;entryDy=0;dashed=1;dashPattern=1 1;endArrow=open;endFill=0;exitX=0.5;exitY=1;exitDx=0;exitDy=0;fontFamily=Architects Daughter;fontSource=https%3A%2F%2Ffonts.googleapis.com%2Fcss%3Ffamily%3DArchitects%2BDaughter;sketch=1;curveFitting=1;jiggle=2;" parent="1" source="-Qh5zQNR_VSR-YZa_GHB-70" target="-Qh5zQNR_VSR-YZa_GHB-76" edge="1">
          <mxGeometry relative="1" as="geometry">
            <mxPoint x="1492.75" y="641" as="sourcePoint" />
            <mxPoint x="1493.75" y="681" as="targetPoint" />
          </mxGeometry>
        </mxCell>
        <mxCell id="-Qh5zQNR_VSR-YZa_GHB-79" value="&lt;p style=&quot;margin: 4px 0px 0px; text-align: center; line-height: 80%;&quot;&gt;&lt;b style=&quot;background-color: initial;&quot;&gt;DepartmentConnectorTCP&lt;/b&gt;&lt;br&gt;&lt;/p&gt;&lt;hr size=&quot;1&quot;&gt;&lt;div style=&quot;height:2px;&quot;&gt;&lt;br&gt;&lt;/div&gt;" style="verticalAlign=top;align=left;overflow=fill;fontSize=12;fontFamily=Architects Daughter;html=1;whiteSpace=wrap;fillColor=#d5e8d4;strokeColor=#82b366;fontSource=https%3A%2F%2Ffonts.googleapis.com%2Fcss%3Ffamily%3DArchitects%2BDaughter;sketch=1;curveFitting=1;jiggle=2;" parent="1" vertex="1">
          <mxGeometry x="1355" y="771" width="158" height="30" as="geometry" />
        </mxCell>
        <mxCell id="-Qh5zQNR_VSR-YZa_GHB-80" value="&lt;p style=&quot;margin: 4px 0px 0px; text-align: center; line-height: 80%;&quot;&gt;&lt;b style=&quot;background-color: initial;&quot;&gt;DepartmentConnectorRMI&lt;/b&gt;&lt;br&gt;&lt;/p&gt;&lt;hr size=&quot;1&quot;&gt;&lt;div style=&quot;height:2px;&quot;&gt;&lt;br&gt;&lt;/div&gt;" style="verticalAlign=top;align=left;overflow=fill;fontSize=12;fontFamily=Architects Daughter;html=1;whiteSpace=wrap;fillColor=#d5e8d4;strokeColor=#82b366;fontSource=https%3A%2F%2Ffonts.googleapis.com%2Fcss%3Ffamily%3DArchitects%2BDaughter;sketch=1;curveFitting=1;jiggle=2;" parent="1" vertex="1">
          <mxGeometry x="1520" y="771" width="162" height="30" as="geometry" />
        </mxCell>
        <mxCell id="-Qh5zQNR_VSR-YZa_GHB-82" style="rounded=0;orthogonalLoop=1;jettySize=auto;html=1;endArrow=block;endFill=0;dashed=1;dashPattern=1 1;entryX=0.25;entryY=1;entryDx=0;entryDy=0;exitX=0.5;exitY=0;exitDx=0;exitDy=0;edgeStyle=orthogonalEdgeStyle;fontFamily=Architects Daughter;fontSource=https%3A%2F%2Ffonts.googleapis.com%2Fcss%3Ffamily%3DArchitects%2BDaughter;sketch=1;curveFitting=1;jiggle=2;" parent="1" source="-Qh5zQNR_VSR-YZa_GHB-79" target="-Qh5zQNR_VSR-YZa_GHB-76" edge="1">
          <mxGeometry relative="1" as="geometry">
            <mxPoint x="1523" y="611" as="sourcePoint" />
            <mxPoint x="1523" y="594" as="targetPoint" />
          </mxGeometry>
        </mxCell>
        <mxCell id="-Qh5zQNR_VSR-YZa_GHB-83" value="implements" style="edgeLabel;html=1;align=center;verticalAlign=middle;resizable=0;points=[];fontSize=9;fontFamily=Architects Daughter;fontSource=https%3A%2F%2Ffonts.googleapis.com%2Fcss%3Ffamily%3DArchitects%2BDaughter;" parent="-Qh5zQNR_VSR-YZa_GHB-82" vertex="1" connectable="0">
          <mxGeometry x="-0.093" relative="1" as="geometry">
            <mxPoint x="-20" y="-9" as="offset" />
          </mxGeometry>
        </mxCell>
        <mxCell id="-Qh5zQNR_VSR-YZa_GHB-84" style="rounded=0;orthogonalLoop=1;jettySize=auto;html=1;endArrow=block;endFill=0;dashed=1;dashPattern=1 1;entryX=0.75;entryY=1;entryDx=0;entryDy=0;exitX=0.5;exitY=0;exitDx=0;exitDy=0;edgeStyle=orthogonalEdgeStyle;fontFamily=Architects Daughter;fontSource=https%3A%2F%2Ffonts.googleapis.com%2Fcss%3Ffamily%3DArchitects%2BDaughter;sketch=1;curveFitting=1;jiggle=2;" parent="1" source="-Qh5zQNR_VSR-YZa_GHB-80" target="-Qh5zQNR_VSR-YZa_GHB-76" edge="1">
          <mxGeometry relative="1" as="geometry">
            <mxPoint x="1446" y="781" as="sourcePoint" />
            <mxPoint x="1465" y="728" as="targetPoint" />
          </mxGeometry>
        </mxCell>
        <mxCell id="-Qh5zQNR_VSR-YZa_GHB-85" value="implements" style="edgeLabel;html=1;align=center;verticalAlign=middle;resizable=0;points=[];fontSize=9;fontFamily=Architects Daughter;fontSource=https%3A%2F%2Ffonts.googleapis.com%2Fcss%3Ffamily%3DArchitects%2BDaughter;" parent="-Qh5zQNR_VSR-YZa_GHB-84" vertex="1" connectable="0">
          <mxGeometry x="-0.093" relative="1" as="geometry">
            <mxPoint x="10" y="-10" as="offset" />
          </mxGeometry>
        </mxCell>
        <mxCell id="-Qh5zQNR_VSR-YZa_GHB-86" value="&lt;p style=&quot;margin: 4px 0px 0px; text-align: center; line-height: 80%;&quot;&gt;&lt;b style=&quot;border-color: var(--border-color);&quot;&gt;EmployeeDatabaseDAOMysql&lt;/b&gt;&lt;br&gt;&lt;/p&gt;&lt;hr size=&quot;1&quot;&gt;&lt;div style=&quot;height:2px;&quot;&gt;&lt;br&gt;&lt;/div&gt;" style="verticalAlign=top;align=left;overflow=fill;fontSize=12;fontFamily=Architects Daughter;html=1;whiteSpace=wrap;fillColor=#d5e8d4;strokeColor=#82b366;fontSource=https%3A%2F%2Ffonts.googleapis.com%2Fcss%3Ffamily%3DArchitects%2BDaughter;sketch=1;curveFitting=1;jiggle=2;" parent="1" vertex="1">
          <mxGeometry x="927" y="791" width="180" height="30" as="geometry" />
        </mxCell>
        <mxCell id="-Qh5zQNR_VSR-YZa_GHB-87" value="&lt;p style=&quot;margin: 4px 0px 0px; text-align: center; line-height: 80%;&quot;&gt;&lt;b style=&quot;border-color: var(--border-color);&quot;&gt;EmployeeDatabaseDAOOracle&lt;/b&gt;&lt;br&gt;&lt;/p&gt;&lt;hr size=&quot;1&quot;&gt;&lt;div style=&quot;height:2px;&quot;&gt;&lt;br&gt;&lt;/div&gt;" style="verticalAlign=top;align=left;overflow=fill;fontSize=12;fontFamily=Architects Daughter;html=1;whiteSpace=wrap;fillColor=#d5e8d4;strokeColor=#82b366;fontSource=https%3A%2F%2Ffonts.googleapis.com%2Fcss%3Ffamily%3DArchitects%2BDaughter;sketch=1;curveFitting=1;jiggle=2;" parent="1" vertex="1">
          <mxGeometry x="1157" y="791" width="180" height="30" as="geometry" />
        </mxCell>
        <mxCell id="-Qh5zQNR_VSR-YZa_GHB-88" style="rounded=0;orthogonalLoop=1;jettySize=auto;html=1;endArrow=block;endFill=0;dashed=1;dashPattern=1 1;entryX=0.25;entryY=1;entryDx=0;entryDy=0;exitX=0.5;exitY=0;exitDx=0;exitDy=0;edgeStyle=orthogonalEdgeStyle;fontFamily=Architects Daughter;fontSource=https%3A%2F%2Ffonts.googleapis.com%2Fcss%3Ffamily%3DArchitects%2BDaughter;sketch=1;curveFitting=1;jiggle=2;" parent="1" source="-Qh5zQNR_VSR-YZa_GHB-86" target="-Qh5zQNR_VSR-YZa_GHB-63" edge="1">
          <mxGeometry relative="1" as="geometry">
            <mxPoint x="962" y="781" as="sourcePoint" />
            <mxPoint x="998" y="728" as="targetPoint" />
            <Array as="points">
              <mxPoint x="1017" y="779" />
              <mxPoint x="1065" y="779" />
            </Array>
          </mxGeometry>
        </mxCell>
        <mxCell id="-Qh5zQNR_VSR-YZa_GHB-89" value="extends" style="edgeLabel;html=1;align=center;verticalAlign=middle;resizable=0;points=[];fontSize=9;fontFamily=Architects Daughter;fontSource=https%3A%2F%2Ffonts.googleapis.com%2Fcss%3Ffamily%3DArchitects%2BDaughter;" parent="-Qh5zQNR_VSR-YZa_GHB-88" vertex="1" connectable="0">
          <mxGeometry x="-0.093" relative="1" as="geometry">
            <mxPoint x="-10" y="-8" as="offset" />
          </mxGeometry>
        </mxCell>
        <mxCell id="-Qh5zQNR_VSR-YZa_GHB-90" style="rounded=0;orthogonalLoop=1;jettySize=auto;html=1;endArrow=block;endFill=0;dashed=1;dashPattern=1 1;entryX=0.75;entryY=1;entryDx=0;entryDy=0;exitX=0.5;exitY=0;exitDx=0;exitDy=0;edgeStyle=orthogonalEdgeStyle;fontFamily=Architects Daughter;fontSource=https%3A%2F%2Ffonts.googleapis.com%2Fcss%3Ffamily%3DArchitects%2BDaughter;sketch=1;curveFitting=1;jiggle=2;" parent="1" source="-Qh5zQNR_VSR-YZa_GHB-87" target="-Qh5zQNR_VSR-YZa_GHB-63" edge="1">
          <mxGeometry relative="1" as="geometry">
            <mxPoint x="1027" y="801" as="sourcePoint" />
            <mxPoint x="1075" y="764" as="targetPoint" />
            <Array as="points">
              <mxPoint x="1247" y="779" />
              <mxPoint x="1220" y="779" />
            </Array>
          </mxGeometry>
        </mxCell>
        <mxCell id="-Qh5zQNR_VSR-YZa_GHB-91" value="extends" style="edgeLabel;html=1;align=center;verticalAlign=middle;resizable=0;points=[];fontSize=9;fontFamily=Architects Daughter;fontSource=https%3A%2F%2Ffonts.googleapis.com%2Fcss%3Ffamily%3DArchitects%2BDaughter;" parent="-Qh5zQNR_VSR-YZa_GHB-90" vertex="1" connectable="0">
          <mxGeometry x="-0.093" relative="1" as="geometry">
            <mxPoint x="16" y="-9" as="offset" />
          </mxGeometry>
        </mxCell>
        <mxCell id="nEkKxy4sDLhJySdy__0V-2" style="edgeStyle=orthogonalEdgeStyle;rounded=0;sketch=1;hachureGap=4;jiggle=2;curveFitting=1;orthogonalLoop=1;jettySize=auto;html=1;entryX=0.5;entryY=0;entryDx=0;entryDy=0;fontFamily=Architects Daughter;fontSource=https%3A%2F%2Ffonts.googleapis.com%2Fcss%3Ffamily%3DArchitects%2BDaughter;fontSize=16;" parent="1" target="-Qh5zQNR_VSR-YZa_GHB-47" edge="1">
          <mxGeometry relative="1" as="geometry">
            <mxPoint x="1334.5" y="172" as="sourcePoint" />
          </mxGeometry>
        </mxCell>
        <mxCell id="HNk5qBnJwfWYtbXmrRM9-24" value="" style="edgeStyle=orthogonalEdgeStyle;rounded=0;sketch=1;hachureGap=4;jiggle=2;curveFitting=1;orthogonalLoop=1;jettySize=auto;html=1;fontFamily=Architects Daughter;fontSource=https%3A%2F%2Ffonts.googleapis.com%2Fcss%3Ffamily%3DArchitects%2BDaughter;fontSize=16;" parent="1" target="-Qh5zQNR_VSR-YZa_GHB-47" edge="1">
          <mxGeometry relative="1" as="geometry">
            <mxPoint x="1334.5714285714294" y="172" as="sourcePoint" />
          </mxGeometry>
        </mxCell>
        <mxCell id="HNk5qBnJwfWYtbXmrRM9-7" value="&lt;font style=&quot;font-size: 15px;&quot;&gt;&lt;b&gt;TCP Client&lt;/b&gt;&lt;/font&gt;" style="image;points=[];aspect=fixed;html=1;align=center;shadow=0;dashed=0;image=img/lib/allied_telesis/computer_and_terminals/Personal_Computer_with_Server.svg;sketch=1;hachureGap=4;jiggle=2;curveFitting=1;fontFamily=Architects Daughter;fontSource=https%3A%2F%2Ffonts.googleapis.com%2Fcss%3Ffamily%3DArchitects%2BDaughter;fontSize=20;" parent="1" vertex="1">
          <mxGeometry x="1403" y="806.9999999999999" width="62.400000000000006" height="62.400000000000006" as="geometry" />
        </mxCell>
        <mxCell id="HNk5qBnJwfWYtbXmrRM9-17" value="" style="group" parent="1" vertex="1" connectable="0">
          <mxGeometry x="480" y="69" width="259" height="80" as="geometry" />
        </mxCell>
        <mxCell id="HNk5qBnJwfWYtbXmrRM9-15" value="&lt;b style=&quot;font-size: 15px;&quot;&gt;DepartmentRMIApplication&lt;/b&gt;&lt;br style=&quot;font-size: 15px;&quot;&gt;&lt;font color=&quot;#808080&quot;&gt;Socket:&lt;/font&gt;&lt;br&gt;- IP: localhost&lt;br style=&quot;font-size: 15px;&quot;&gt;- Port: 5001" style="text;html=1;align=left;verticalAlign=middle;resizable=0;points=[];autosize=1;strokeColor=none;fillColor=none;fontSize=15;fontFamily=Architects Daughter;" parent="HNk5qBnJwfWYtbXmrRM9-17" vertex="1">
          <mxGeometry x="59" y="-10" width="200" height="90" as="geometry" />
        </mxCell>
        <mxCell id="HNk5qBnJwfWYtbXmrRM9-16" value="" style="verticalLabelPosition=bottom;sketch=0;aspect=fixed;html=1;verticalAlign=top;strokeColor=none;align=center;outlineConnect=0;shape=mxgraph.citrix.tower_server;hachureGap=4;jiggle=2;curveFitting=1;fontFamily=Architects Daughter;fontSource=https%3A%2F%2Ffonts.googleapis.com%2Fcss%3Ffamily%3DArchitects%2BDaughter;fontSize=20;" parent="HNk5qBnJwfWYtbXmrRM9-17" vertex="1">
          <mxGeometry y="8" width="45" height="58.85" as="geometry" />
        </mxCell>
        <mxCell id="HNk5qBnJwfWYtbXmrRM9-18" value="&lt;font style=&quot;font-size: 15px;&quot;&gt;&lt;b&gt;RMI Client&lt;/b&gt;&lt;/font&gt;" style="image;points=[];aspect=fixed;html=1;align=center;shadow=0;dashed=0;image=img/lib/allied_telesis/computer_and_terminals/Personal_Computer_with_Server.svg;sketch=1;hachureGap=4;jiggle=2;curveFitting=1;fontFamily=Architects Daughter;fontSource=https%3A%2F%2Ffonts.googleapis.com%2Fcss%3Ffamily%3DArchitects%2BDaughter;fontSize=20;" parent="1" vertex="1">
          <mxGeometry x="1566.1" y="807.9999999999999" width="62.400000000000006" height="62.400000000000006" as="geometry" />
        </mxCell>
        <mxCell id="-Qh5zQNR_VSR-YZa_GHB-96" value="department" style="text;html=1;align=center;verticalAlign=middle;resizable=0;points=[];autosize=1;strokeColor=none;fillColor=none;fontStyle=1;fontFamily=Architects Daughter;fontSource=https%3A%2F%2Ffonts.googleapis.com%2Fcss%3Ffamily%3DArchitects%2BDaughter;" parent="1" vertex="1">
          <mxGeometry x="7" y="8" width="90" height="30" as="geometry" />
        </mxCell>
        <mxCell id="sWgnHZlghvhyXd7LkZwI-21" value="&lt;p style=&quot;margin: 4px 0px 0px; text-align: center; line-height: 80%;&quot;&gt;&lt;b&gt;DepartmentRMIService&lt;/b&gt;&lt;br&gt;&lt;/p&gt;&lt;hr size=&quot;1&quot;&gt;&lt;div style=&quot;height:2px;&quot;&gt;&amp;nbsp;+ finAll(): List&amp;lt;String&amp;gt;&lt;br&gt;&amp;nbsp;+ findByCode(int code): String&lt;/div&gt;" style="verticalAlign=top;align=left;overflow=fill;fontSize=12;fontFamily=Architects Daughter;html=1;whiteSpace=wrap;fillColor=#d5e8d4;strokeColor=#82b366;fontSource=https%3A%2F%2Ffonts.googleapis.com%2Fcss%3Ffamily%3DArchitects%2BDaughter;sketch=1;curveFitting=1;jiggle=2;" parent="1" vertex="1">
          <mxGeometry x="500" y="170" width="185" height="58" as="geometry" />
        </mxCell>
        <mxCell id="LVVLpY_JYKPzYzUHeONT-9" value="&lt;p style=&quot;margin: 4px 0px 0px; text-align: center; line-height: 80%;&quot;&gt;&lt;b style=&quot;background-color: initial;&quot;&gt;DepartmentServiceImpl&lt;/b&gt;&lt;br&gt;&lt;/p&gt;&lt;hr size=&quot;1&quot;&gt;&lt;div style=&quot;height:2px;&quot;&gt;&amp;nbsp;+ DepartmentServiceImpl(DepartmentRepository repository)&lt;/div&gt;" style="verticalAlign=top;align=left;overflow=fill;fontSize=12;fontFamily=Architects Daughter;html=1;whiteSpace=wrap;fillColor=#f8cecc;strokeColor=#b85450;fontSource=https%3A%2F%2Ffonts.googleapis.com%2Fcss%3Ffamily%3DArchitects%2BDaughter;sketch=1;curveFitting=1;jiggle=2;" parent="1" vertex="1">
          <mxGeometry x="278.5" y="430" width="325" height="42" as="geometry" />
        </mxCell>
        <mxCell id="-Qh5zQNR_VSR-YZa_GHB-39" value="&lt;p style=&quot;margin: 4px 0px 0px; text-align: center; line-height: 80%;&quot;&gt;&lt;b style=&quot;background-color: initial;&quot;&gt;DepartmentRepositoryImpl&lt;/b&gt;&lt;br&gt;&lt;/p&gt;&lt;hr size=&quot;1&quot;&gt;&lt;div style=&quot;height:2px;&quot;&gt;&lt;br&gt;&lt;/div&gt;" style="verticalAlign=top;align=left;overflow=fill;fontSize=12;fontFamily=Architects Daughter;html=1;whiteSpace=wrap;fillColor=#d5e8d4;strokeColor=#82b366;fontSource=https%3A%2F%2Ffonts.googleapis.com%2Fcss%3Ffamily%3DArchitects%2BDaughter;sketch=1;curveFitting=1;jiggle=2;" parent="1" vertex="1">
          <mxGeometry x="352" y="610" width="180" height="30" as="geometry" />
        </mxCell>
        <mxCell id="HNk5qBnJwfWYtbXmrRM9-19" value="" style="group" parent="1" vertex="1" connectable="0">
          <mxGeometry x="100" y="59" width="264" height="90" as="geometry" />
        </mxCell>
        <mxCell id="HNk5qBnJwfWYtbXmrRM9-11" value="&lt;b style=&quot;font-size: 15px;&quot;&gt;DepartmentTCPApplication&lt;/b&gt;&lt;br style=&quot;font-size: 15px;&quot;&gt;&lt;font color=&quot;#808080&quot;&gt;Socket:&lt;/font&gt;&lt;br&gt;- IP: localhost&lt;br style=&quot;font-size: 15px;&quot;&gt;- Port: 5000" style="text;html=1;align=left;verticalAlign=middle;resizable=0;points=[];autosize=1;strokeColor=none;fillColor=none;fontSize=15;fontFamily=Architects Daughter;" parent="HNk5qBnJwfWYtbXmrRM9-19" vertex="1">
          <mxGeometry x="54" width="210" height="90" as="geometry" />
        </mxCell>
        <mxCell id="HNk5qBnJwfWYtbXmrRM9-9" value="" style="verticalLabelPosition=bottom;sketch=0;aspect=fixed;html=1;verticalAlign=top;strokeColor=none;align=center;outlineConnect=0;shape=mxgraph.citrix.tower_server;hachureGap=4;jiggle=2;curveFitting=1;fontFamily=Architects Daughter;fontSource=https%3A%2F%2Ffonts.googleapis.com%2Fcss%3Ffamily%3DArchitects%2BDaughter;fontSize=20;" parent="HNk5qBnJwfWYtbXmrRM9-19" vertex="1">
          <mxGeometry y="17" width="45" height="58.85" as="geometry" />
        </mxCell>
        <mxCell id="HNk5qBnJwfWYtbXmrRM9-20" value="" style="endArrow=classic;startArrow=classic;html=1;rounded=0;sketch=1;hachureGap=4;jiggle=2;curveFitting=1;fontFamily=Architects Daughter;fontSource=https%3A%2F%2Ffonts.googleapis.com%2Fcss%3Ffamily%3DArchitects%2BDaughter;fontSize=16;fillColor=#1ba1e2;strokeColor=#006EAF;dashed=1;exitX=0.295;exitY=-0.022;exitDx=0;exitDy=0;exitPerimeter=0;" parent="1" source="HNk5qBnJwfWYtbXmrRM9-15" target="HNk5qBnJwfWYtbXmrRM9-18" edge="1">
          <mxGeometry width="50" height="50" relative="1" as="geometry">
            <mxPoint x="810" y="190" as="sourcePoint" />
            <mxPoint x="1550" y="1040" as="targetPoint" />
            <Array as="points">
              <mxPoint x="600" y="10" />
              <mxPoint x="1760" />
              <mxPoint x="1760" y="940" />
              <mxPoint x="1600" y="940" />
            </Array>
          </mxGeometry>
        </mxCell>
        <mxCell id="sWgnHZlghvhyXd7LkZwI-44" value="" style="shape=image;html=1;verticalAlign=top;verticalLabelPosition=bottom;labelBackgroundColor=#ffffff;imageAspect=0;aspect=fixed;image=https://cdn2.iconfinder.com/data/icons/whcompare-servers-web-hosting/50/dedicated-ip-address-128.png;align=center;fontFamily=Architects Daughter;fontSource=https%3A%2F%2Ffonts.googleapis.com%2Fcss%3Ffamily%3DArchitects%2BDaughter;fontSize=14;" parent="1" vertex="1">
          <mxGeometry x="1578" y="-21" width="50" height="50" as="geometry" />
        </mxCell>
        <mxCell id="HNk5qBnJwfWYtbXmrRM9-23" value="" style="endArrow=classic;startArrow=classic;html=1;rounded=0;sketch=1;hachureGap=4;jiggle=2;curveFitting=1;fontFamily=Architects Daughter;fontSource=https%3A%2F%2Ffonts.googleapis.com%2Fcss%3Ffamily%3DArchitects%2BDaughter;fontSize=16;fillColor=#1ba1e2;strokeColor=#006EAF;dashed=1;exitX=0.403;exitY=-0.045;exitDx=0;exitDy=0;exitPerimeter=0;" parent="1" source="HNk5qBnJwfWYtbXmrRM9-11" target="HNk5qBnJwfWYtbXmrRM9-7" edge="1">
          <mxGeometry width="50" height="50" relative="1" as="geometry">
            <mxPoint x="180" y="4" as="sourcePoint" />
            <mxPoint x="1318" y="800" as="targetPoint" />
            <Array as="points">
              <mxPoint x="240" y="-70" />
              <mxPoint x="1840" y="-70" />
              <mxPoint x="1840" y="980" />
              <mxPoint x="1433" y="979" />
            </Array>
          </mxGeometry>
        </mxCell>
        <mxCell id="HNk5qBnJwfWYtbXmrRM9-26" value="" style="shape=image;html=1;verticalAlign=top;verticalLabelPosition=bottom;labelBackgroundColor=#ffffff;imageAspect=0;aspect=fixed;image=https://cdn2.iconfinder.com/data/icons/whcompare-servers-web-hosting/50/dedicated-ip-address-128.png;align=center;fontFamily=Architects Daughter;fontSource=https%3A%2F%2Ffonts.googleapis.com%2Fcss%3Ffamily%3DArchitects%2BDaughter;fontSize=14;" parent="1" vertex="1">
          <mxGeometry x="1575" y="-92" width="50" height="50" as="geometry" />
        </mxCell>
        <mxCell id="mbuu89IxqkNLr_L0eWKM-2" value="" style="group" vertex="1" connectable="0" parent="1">
          <mxGeometry x="1201" y="117" width="259" height="80" as="geometry" />
        </mxCell>
        <mxCell id="mbuu89IxqkNLr_L0eWKM-3" value="&lt;b style=&quot;font-size: 15px;&quot;&gt;EmployeeApplication&lt;/b&gt;" style="text;html=1;align=left;verticalAlign=middle;resizable=0;points=[];autosize=1;strokeColor=none;fillColor=none;fontSize=15;fontFamily=Architects Daughter;" vertex="1" parent="mbuu89IxqkNLr_L0eWKM-2">
          <mxGeometry x="59" y="20" width="160" height="30" as="geometry" />
        </mxCell>
        <mxCell id="mbuu89IxqkNLr_L0eWKM-4" value="" style="verticalLabelPosition=bottom;sketch=0;aspect=fixed;html=1;verticalAlign=top;strokeColor=none;align=center;outlineConnect=0;shape=mxgraph.citrix.tower_server;hachureGap=4;jiggle=2;curveFitting=1;fontFamily=Architects Daughter;fontSource=https%3A%2F%2Ffonts.googleapis.com%2Fcss%3Ffamily%3DArchitects%2BDaughter;fontSize=20;" vertex="1" parent="mbuu89IxqkNLr_L0eWKM-2">
          <mxGeometry y="8" width="45" height="58.85" as="geometry" />
        </mxCell>
      </root>
    </mxGraphModel>
  </diagram>
  <diagram id="O_Y_sHkSmtddPWNaNFy5" name="Database Diagram">
    <mxGraphModel dx="1373" dy="707" grid="1" gridSize="10" guides="1" tooltips="1" connect="1" arrows="1" fold="1" page="1" pageScale="1" pageWidth="827" pageHeight="1169" math="0" shadow="0">
      <root>
        <mxCell id="0" />
        <mxCell id="1" parent="0" />
        <mxCell id="-2Aa5-DBnPUxMg9QuQHP-35" value="" style="rounded=0;whiteSpace=wrap;html=1;hachureGap=4;fontFamily=Architects Daughter;fontSource=https%3A%2F%2Ffonts.googleapis.com%2Fcss%3Ffamily%3DArchitects%2BDaughter;fontSize=20;strokeColor=none;" vertex="1" parent="1">
          <mxGeometry x="150" y="540" width="620" height="310" as="geometry" />
        </mxCell>
        <mxCell id="-2Aa5-DBnPUxMg9QuQHP-1" value="departments" style="shape=table;startSize=30;container=1;collapsible=1;childLayout=tableLayout;fixedRows=1;rowLines=0;fontStyle=1;align=center;resizeLast=1;html=1;sketch=1;hachureGap=4;jiggle=2;curveFitting=1;fontFamily=Architects Daughter;fontSource=https%3A%2F%2Ffonts.googleapis.com%2Fcss%3Ffamily%3DArchitects%2BDaughter;fontSize=20;" vertex="1" parent="1">
          <mxGeometry x="210" y="640" width="180" height="120" as="geometry" />
        </mxCell>
        <mxCell id="-2Aa5-DBnPUxMg9QuQHP-2" value="" style="shape=tableRow;horizontal=0;startSize=0;swimlaneHead=0;swimlaneBody=0;fillColor=none;collapsible=0;dropTarget=0;points=[[0,0.5],[1,0.5]];portConstraint=eastwest;top=0;left=0;right=0;bottom=1;sketch=1;hachureGap=4;jiggle=2;curveFitting=1;fontFamily=Architects Daughter;fontSource=https%3A%2F%2Ffonts.googleapis.com%2Fcss%3Ffamily%3DArchitects%2BDaughter;fontSize=20;" vertex="1" parent="-2Aa5-DBnPUxMg9QuQHP-1">
          <mxGeometry y="30" width="180" height="30" as="geometry" />
        </mxCell>
        <mxCell id="-2Aa5-DBnPUxMg9QuQHP-3" value="PK" style="shape=partialRectangle;connectable=0;fillColor=none;top=0;left=0;bottom=0;right=0;fontStyle=1;overflow=hidden;whiteSpace=wrap;html=1;sketch=1;hachureGap=4;jiggle=2;curveFitting=1;fontFamily=Architects Daughter;fontSource=https%3A%2F%2Ffonts.googleapis.com%2Fcss%3Ffamily%3DArchitects%2BDaughter;fontSize=20;" vertex="1" parent="-2Aa5-DBnPUxMg9QuQHP-2">
          <mxGeometry width="30" height="30" as="geometry">
            <mxRectangle width="30" height="30" as="alternateBounds" />
          </mxGeometry>
        </mxCell>
        <mxCell id="-2Aa5-DBnPUxMg9QuQHP-4" value="code" style="shape=partialRectangle;connectable=0;fillColor=none;top=0;left=0;bottom=0;right=0;align=left;spacingLeft=6;fontStyle=5;overflow=hidden;whiteSpace=wrap;html=1;sketch=1;hachureGap=4;jiggle=2;curveFitting=1;fontFamily=Architects Daughter;fontSource=https%3A%2F%2Ffonts.googleapis.com%2Fcss%3Ffamily%3DArchitects%2BDaughter;fontSize=20;" vertex="1" parent="-2Aa5-DBnPUxMg9QuQHP-2">
          <mxGeometry x="30" width="150" height="30" as="geometry">
            <mxRectangle width="150" height="30" as="alternateBounds" />
          </mxGeometry>
        </mxCell>
        <mxCell id="-2Aa5-DBnPUxMg9QuQHP-5" value="" style="shape=tableRow;horizontal=0;startSize=0;swimlaneHead=0;swimlaneBody=0;fillColor=none;collapsible=0;dropTarget=0;points=[[0,0.5],[1,0.5]];portConstraint=eastwest;top=0;left=0;right=0;bottom=0;sketch=1;hachureGap=4;jiggle=2;curveFitting=1;fontFamily=Architects Daughter;fontSource=https%3A%2F%2Ffonts.googleapis.com%2Fcss%3Ffamily%3DArchitects%2BDaughter;fontSize=20;" vertex="1" parent="-2Aa5-DBnPUxMg9QuQHP-1">
          <mxGeometry y="60" width="180" height="30" as="geometry" />
        </mxCell>
        <mxCell id="-2Aa5-DBnPUxMg9QuQHP-6" value="" style="shape=partialRectangle;connectable=0;fillColor=none;top=0;left=0;bottom=0;right=0;editable=1;overflow=hidden;whiteSpace=wrap;html=1;sketch=1;hachureGap=4;jiggle=2;curveFitting=1;fontFamily=Architects Daughter;fontSource=https%3A%2F%2Ffonts.googleapis.com%2Fcss%3Ffamily%3DArchitects%2BDaughter;fontSize=20;" vertex="1" parent="-2Aa5-DBnPUxMg9QuQHP-5">
          <mxGeometry width="30" height="30" as="geometry">
            <mxRectangle width="30" height="30" as="alternateBounds" />
          </mxGeometry>
        </mxCell>
        <mxCell id="-2Aa5-DBnPUxMg9QuQHP-7" value="name" style="shape=partialRectangle;connectable=0;fillColor=none;top=0;left=0;bottom=0;right=0;align=left;spacingLeft=6;overflow=hidden;whiteSpace=wrap;html=1;sketch=1;hachureGap=4;jiggle=2;curveFitting=1;fontFamily=Architects Daughter;fontSource=https%3A%2F%2Ffonts.googleapis.com%2Fcss%3Ffamily%3DArchitects%2BDaughter;fontSize=20;" vertex="1" parent="-2Aa5-DBnPUxMg9QuQHP-5">
          <mxGeometry x="30" width="150" height="30" as="geometry">
            <mxRectangle width="150" height="30" as="alternateBounds" />
          </mxGeometry>
        </mxCell>
        <mxCell id="-2Aa5-DBnPUxMg9QuQHP-8" value="" style="shape=tableRow;horizontal=0;startSize=0;swimlaneHead=0;swimlaneBody=0;fillColor=none;collapsible=0;dropTarget=0;points=[[0,0.5],[1,0.5]];portConstraint=eastwest;top=0;left=0;right=0;bottom=0;sketch=1;hachureGap=4;jiggle=2;curveFitting=1;fontFamily=Architects Daughter;fontSource=https%3A%2F%2Ffonts.googleapis.com%2Fcss%3Ffamily%3DArchitects%2BDaughter;fontSize=20;" vertex="1" parent="-2Aa5-DBnPUxMg9QuQHP-1">
          <mxGeometry y="90" width="180" height="30" as="geometry" />
        </mxCell>
        <mxCell id="-2Aa5-DBnPUxMg9QuQHP-9" value="" style="shape=partialRectangle;connectable=0;fillColor=none;top=0;left=0;bottom=0;right=0;editable=1;overflow=hidden;whiteSpace=wrap;html=1;sketch=1;hachureGap=4;jiggle=2;curveFitting=1;fontFamily=Architects Daughter;fontSource=https%3A%2F%2Ffonts.googleapis.com%2Fcss%3Ffamily%3DArchitects%2BDaughter;fontSize=20;" vertex="1" parent="-2Aa5-DBnPUxMg9QuQHP-8">
          <mxGeometry width="30" height="30" as="geometry">
            <mxRectangle width="30" height="30" as="alternateBounds" />
          </mxGeometry>
        </mxCell>
        <mxCell id="-2Aa5-DBnPUxMg9QuQHP-10" value="location" style="shape=partialRectangle;connectable=0;fillColor=none;top=0;left=0;bottom=0;right=0;align=left;spacingLeft=6;overflow=hidden;whiteSpace=wrap;html=1;sketch=1;hachureGap=4;jiggle=2;curveFitting=1;fontFamily=Architects Daughter;fontSource=https%3A%2F%2Ffonts.googleapis.com%2Fcss%3Ffamily%3DArchitects%2BDaughter;fontSize=20;" vertex="1" parent="-2Aa5-DBnPUxMg9QuQHP-8">
          <mxGeometry x="30" width="150" height="30" as="geometry">
            <mxRectangle width="150" height="30" as="alternateBounds" />
          </mxGeometry>
        </mxCell>
        <mxCell id="-2Aa5-DBnPUxMg9QuQHP-14" value="employees" style="shape=table;startSize=30;container=1;collapsible=1;childLayout=tableLayout;fixedRows=1;rowLines=0;fontStyle=1;align=center;resizeLast=1;html=1;sketch=1;hachureGap=4;jiggle=2;curveFitting=1;fontFamily=Architects Daughter;fontSource=https%3A%2F%2Ffonts.googleapis.com%2Fcss%3Ffamily%3DArchitects%2BDaughter;fontSize=20;" vertex="1" parent="1">
          <mxGeometry x="480" y="610" width="220" height="180" as="geometry" />
        </mxCell>
        <mxCell id="-2Aa5-DBnPUxMg9QuQHP-15" value="" style="shape=tableRow;horizontal=0;startSize=0;swimlaneHead=0;swimlaneBody=0;fillColor=none;collapsible=0;dropTarget=0;points=[[0,0.5],[1,0.5]];portConstraint=eastwest;top=0;left=0;right=0;bottom=1;sketch=1;hachureGap=4;jiggle=2;curveFitting=1;fontFamily=Architects Daughter;fontSource=https%3A%2F%2Ffonts.googleapis.com%2Fcss%3Ffamily%3DArchitects%2BDaughter;fontSize=20;" vertex="1" parent="-2Aa5-DBnPUxMg9QuQHP-14">
          <mxGeometry y="30" width="220" height="30" as="geometry" />
        </mxCell>
        <mxCell id="-2Aa5-DBnPUxMg9QuQHP-16" value="PK" style="shape=partialRectangle;connectable=0;fillColor=none;top=0;left=0;bottom=0;right=0;fontStyle=1;overflow=hidden;whiteSpace=wrap;html=1;sketch=1;hachureGap=4;jiggle=2;curveFitting=1;fontFamily=Architects Daughter;fontSource=https%3A%2F%2Ffonts.googleapis.com%2Fcss%3Ffamily%3DArchitects%2BDaughter;fontSize=20;" vertex="1" parent="-2Aa5-DBnPUxMg9QuQHP-15">
          <mxGeometry width="30" height="30" as="geometry">
            <mxRectangle width="30" height="30" as="alternateBounds" />
          </mxGeometry>
        </mxCell>
        <mxCell id="-2Aa5-DBnPUxMg9QuQHP-17" value="code" style="shape=partialRectangle;connectable=0;fillColor=none;top=0;left=0;bottom=0;right=0;align=left;spacingLeft=6;fontStyle=5;overflow=hidden;whiteSpace=wrap;html=1;sketch=1;hachureGap=4;jiggle=2;curveFitting=1;fontFamily=Architects Daughter;fontSource=https%3A%2F%2Ffonts.googleapis.com%2Fcss%3Ffamily%3DArchitects%2BDaughter;fontSize=20;" vertex="1" parent="-2Aa5-DBnPUxMg9QuQHP-15">
          <mxGeometry x="30" width="190" height="30" as="geometry">
            <mxRectangle width="190" height="30" as="alternateBounds" />
          </mxGeometry>
        </mxCell>
        <mxCell id="-2Aa5-DBnPUxMg9QuQHP-30" value="" style="shape=tableRow;horizontal=0;startSize=0;swimlaneHead=0;swimlaneBody=0;fillColor=none;collapsible=0;dropTarget=0;points=[[0,0.5],[1,0.5]];portConstraint=eastwest;top=0;left=0;right=0;bottom=1;sketch=1;hachureGap=4;jiggle=2;curveFitting=1;fontFamily=Architects Daughter;fontSource=https%3A%2F%2Ffonts.googleapis.com%2Fcss%3Ffamily%3DArchitects%2BDaughter;fontSize=20;" vertex="1" parent="-2Aa5-DBnPUxMg9QuQHP-14">
          <mxGeometry y="60" width="220" height="30" as="geometry" />
        </mxCell>
        <mxCell id="-2Aa5-DBnPUxMg9QuQHP-31" value="FK" style="shape=partialRectangle;connectable=0;fillColor=none;top=0;left=0;bottom=0;right=0;fontStyle=1;overflow=hidden;whiteSpace=wrap;html=1;sketch=1;hachureGap=4;jiggle=2;curveFitting=1;fontFamily=Architects Daughter;fontSource=https%3A%2F%2Ffonts.googleapis.com%2Fcss%3Ffamily%3DArchitects%2BDaughter;fontSize=20;" vertex="1" parent="-2Aa5-DBnPUxMg9QuQHP-30">
          <mxGeometry width="30" height="30" as="geometry">
            <mxRectangle width="30" height="30" as="alternateBounds" />
          </mxGeometry>
        </mxCell>
        <mxCell id="-2Aa5-DBnPUxMg9QuQHP-32" value="department_code" style="shape=partialRectangle;connectable=0;fillColor=none;top=0;left=0;bottom=0;right=0;align=left;spacingLeft=6;fontStyle=5;overflow=hidden;whiteSpace=wrap;html=1;sketch=1;hachureGap=4;jiggle=2;curveFitting=1;fontFamily=Architects Daughter;fontSource=https%3A%2F%2Ffonts.googleapis.com%2Fcss%3Ffamily%3DArchitects%2BDaughter;fontSize=20;" vertex="1" parent="-2Aa5-DBnPUxMg9QuQHP-30">
          <mxGeometry x="30" width="190" height="30" as="geometry">
            <mxRectangle width="190" height="30" as="alternateBounds" />
          </mxGeometry>
        </mxCell>
        <mxCell id="-2Aa5-DBnPUxMg9QuQHP-27" value="" style="shape=tableRow;horizontal=0;startSize=0;swimlaneHead=0;swimlaneBody=0;fillColor=none;collapsible=0;dropTarget=0;points=[[0,0.5],[1,0.5]];portConstraint=eastwest;top=0;left=0;right=0;bottom=0;sketch=1;hachureGap=4;jiggle=2;curveFitting=1;fontFamily=Architects Daughter;fontSource=https%3A%2F%2Ffonts.googleapis.com%2Fcss%3Ffamily%3DArchitects%2BDaughter;fontSize=20;" vertex="1" parent="-2Aa5-DBnPUxMg9QuQHP-14">
          <mxGeometry y="90" width="220" height="30" as="geometry" />
        </mxCell>
        <mxCell id="-2Aa5-DBnPUxMg9QuQHP-28" value="" style="shape=partialRectangle;connectable=0;fillColor=none;top=0;left=0;bottom=0;right=0;editable=1;overflow=hidden;whiteSpace=wrap;html=1;sketch=1;hachureGap=4;jiggle=2;curveFitting=1;fontFamily=Architects Daughter;fontSource=https%3A%2F%2Ffonts.googleapis.com%2Fcss%3Ffamily%3DArchitects%2BDaughter;fontSize=20;" vertex="1" parent="-2Aa5-DBnPUxMg9QuQHP-27">
          <mxGeometry width="30" height="30" as="geometry">
            <mxRectangle width="30" height="30" as="alternateBounds" />
          </mxGeometry>
        </mxCell>
        <mxCell id="-2Aa5-DBnPUxMg9QuQHP-29" value="name" style="shape=partialRectangle;connectable=0;fillColor=none;top=0;left=0;bottom=0;right=0;align=left;spacingLeft=6;overflow=hidden;whiteSpace=wrap;html=1;sketch=1;hachureGap=4;jiggle=2;curveFitting=1;fontFamily=Architects Daughter;fontSource=https%3A%2F%2Ffonts.googleapis.com%2Fcss%3Ffamily%3DArchitects%2BDaughter;fontSize=20;" vertex="1" parent="-2Aa5-DBnPUxMg9QuQHP-27">
          <mxGeometry x="30" width="190" height="30" as="geometry">
            <mxRectangle width="190" height="30" as="alternateBounds" />
          </mxGeometry>
        </mxCell>
        <mxCell id="-2Aa5-DBnPUxMg9QuQHP-24" value="" style="shape=tableRow;horizontal=0;startSize=0;swimlaneHead=0;swimlaneBody=0;fillColor=none;collapsible=0;dropTarget=0;points=[[0,0.5],[1,0.5]];portConstraint=eastwest;top=0;left=0;right=0;bottom=0;sketch=1;hachureGap=4;jiggle=2;curveFitting=1;fontFamily=Architects Daughter;fontSource=https%3A%2F%2Ffonts.googleapis.com%2Fcss%3Ffamily%3DArchitects%2BDaughter;fontSize=20;" vertex="1" parent="-2Aa5-DBnPUxMg9QuQHP-14">
          <mxGeometry y="120" width="220" height="30" as="geometry" />
        </mxCell>
        <mxCell id="-2Aa5-DBnPUxMg9QuQHP-25" value="" style="shape=partialRectangle;connectable=0;fillColor=none;top=0;left=0;bottom=0;right=0;editable=1;overflow=hidden;whiteSpace=wrap;html=1;sketch=1;hachureGap=4;jiggle=2;curveFitting=1;fontFamily=Architects Daughter;fontSource=https%3A%2F%2Ffonts.googleapis.com%2Fcss%3Ffamily%3DArchitects%2BDaughter;fontSize=20;" vertex="1" parent="-2Aa5-DBnPUxMg9QuQHP-24">
          <mxGeometry width="30" height="30" as="geometry">
            <mxRectangle width="30" height="30" as="alternateBounds" />
          </mxGeometry>
        </mxCell>
        <mxCell id="-2Aa5-DBnPUxMg9QuQHP-26" value="contract_date" style="shape=partialRectangle;connectable=0;fillColor=none;top=0;left=0;bottom=0;right=0;align=left;spacingLeft=6;overflow=hidden;whiteSpace=wrap;html=1;sketch=1;hachureGap=4;jiggle=2;curveFitting=1;fontFamily=Architects Daughter;fontSource=https%3A%2F%2Ffonts.googleapis.com%2Fcss%3Ffamily%3DArchitects%2BDaughter;fontSize=20;" vertex="1" parent="-2Aa5-DBnPUxMg9QuQHP-24">
          <mxGeometry x="30" width="190" height="30" as="geometry">
            <mxRectangle width="190" height="30" as="alternateBounds" />
          </mxGeometry>
        </mxCell>
        <mxCell id="-2Aa5-DBnPUxMg9QuQHP-18" value="" style="shape=tableRow;horizontal=0;startSize=0;swimlaneHead=0;swimlaneBody=0;fillColor=none;collapsible=0;dropTarget=0;points=[[0,0.5],[1,0.5]];portConstraint=eastwest;top=0;left=0;right=0;bottom=0;sketch=1;hachureGap=4;jiggle=2;curveFitting=1;fontFamily=Architects Daughter;fontSource=https%3A%2F%2Ffonts.googleapis.com%2Fcss%3Ffamily%3DArchitects%2BDaughter;fontSize=20;" vertex="1" parent="-2Aa5-DBnPUxMg9QuQHP-14">
          <mxGeometry y="150" width="220" height="30" as="geometry" />
        </mxCell>
        <mxCell id="-2Aa5-DBnPUxMg9QuQHP-19" value="" style="shape=partialRectangle;connectable=0;fillColor=none;top=0;left=0;bottom=0;right=0;editable=1;overflow=hidden;whiteSpace=wrap;html=1;sketch=1;hachureGap=4;jiggle=2;curveFitting=1;fontFamily=Architects Daughter;fontSource=https%3A%2F%2Ffonts.googleapis.com%2Fcss%3Ffamily%3DArchitects%2BDaughter;fontSize=20;" vertex="1" parent="-2Aa5-DBnPUxMg9QuQHP-18">
          <mxGeometry width="30" height="30" as="geometry">
            <mxRectangle width="30" height="30" as="alternateBounds" />
          </mxGeometry>
        </mxCell>
        <mxCell id="-2Aa5-DBnPUxMg9QuQHP-20" value="contract_type" style="shape=partialRectangle;connectable=0;fillColor=none;top=0;left=0;bottom=0;right=0;align=left;spacingLeft=6;overflow=hidden;whiteSpace=wrap;html=1;sketch=1;hachureGap=4;jiggle=2;curveFitting=1;fontFamily=Architects Daughter;fontSource=https%3A%2F%2Ffonts.googleapis.com%2Fcss%3Ffamily%3DArchitects%2BDaughter;fontSize=20;" vertex="1" parent="-2Aa5-DBnPUxMg9QuQHP-18">
          <mxGeometry x="30" width="190" height="30" as="geometry">
            <mxRectangle width="190" height="30" as="alternateBounds" />
          </mxGeometry>
        </mxCell>
        <mxCell id="-2Aa5-DBnPUxMg9QuQHP-33" style="edgeStyle=orthogonalEdgeStyle;rounded=0;sketch=1;hachureGap=4;jiggle=2;curveFitting=1;orthogonalLoop=1;jettySize=auto;html=1;entryX=0;entryY=0.5;entryDx=0;entryDy=0;fontFamily=Architects Daughter;fontSource=https%3A%2F%2Ffonts.googleapis.com%2Fcss%3Ffamily%3DArchitects%2BDaughter;fontSize=16;endArrow=ERoneToMany;endFill=0;startArrow=ERone;startFill=0;endSize=12;startSize=12;" edge="1" parent="1" source="-2Aa5-DBnPUxMg9QuQHP-2" target="-2Aa5-DBnPUxMg9QuQHP-30">
          <mxGeometry relative="1" as="geometry" />
        </mxCell>
      </root>
    </mxGraphModel>
  </diagram>
</mxfile>
